<?xml version="1.0" standalone="no"?>
<!DOCTYPE svg PUBLIC "-//W3C//DTD SVG 20010904//EN"
 "http://www.w3.org/TR/2001/REC-SVG-20010904/DTD/svg10.dtd">
<svg version="1.0" xmlns="http://www.w3.org/2000/svg"
 width="96.000000pt" height="96.000000pt" viewBox="0 0 96.000000 96.000000"
 preserveAspectRatio="xMidYMid meet">
<metadata>
Created by potrace 1.11, written by Peter Selinger 2001-2013
</metadata>
<g transform="translate(0.000000,96.000000) scale(0.100000,-0.100000)"
fill="#000000" stroke="none">
<path d="M415 854 c-9 -9 -14 -23 -11 -30 4 -11 -14 -14 -93 -14 -82 0 -101
-3 -114 -18 -15 -17 -17 -55 -17 -340 0 -309 1 -323 20 -342 19 -19 33 -20
280 -20 247 0 261 1 280 20 19 19 20 33 20 343 0 298 -1 325 -18 340 -13 12
-42 17 -111 19 -84 3 -94 5 -97 22 -4 27 -22 36 -76 36 -30 0 -52 -6 -63 -16z
m106 -46 c0 -18 2 -45 3 -60 2 -27 -1 -28 -41 -28 -24 0 -43 5 -44 10 0 6 -1
24 -1 40 0 72 -1 70 42 70 38 0 40 -1 41 -32z m-121 -43 c0 -11 -18 -15 -77
-17 l-78 -3 -3 -265 c-2 -218 0 -267 12 -275 7 -6 15 -19 17 -30 4 -19 13 -20
209 -20 196 0 205 1 209 20 2 11 10 24 17 30 12 8 14 57 12 275 l-3 265 -77 3
c-60 2 -78 6 -78 17 0 12 17 15 83 15 51 0 88 -5 95 -12 9 -9 12 -92 12 -314
0 -166 -3 -309 -6 -318 -5 -14 -37 -16 -254 -16 -137 0 -255 3 -264 6 -14 5
-16 43 -16 318 0 229 3 315 12 324 7 7 44 12 95 12 66 0 83 -3 83 -15z m0 -60
c0 -12 16 -15 80 -15 64 0 80 3 80 15 0 12 14 15 65 15 l65 0 -2 -247 -3 -247
-205 0 -205 0 -3 247 -2 247 65 0 c51 0 65 -3 65 -15z m260 -517 c0 -5 -81 -8
-181 -8 -99 0 -178 3 -176 8 7 9 357 9 357 0z"/>
<path d="M463 643 c-9 -3 -13 -36 -13 -114 l0 -109 30 0 31 0 -3 112 c-3 114
-7 124 -45 111z"/>
<path d="M453 348 c-20 -27 -21 -46 -3 -63 23 -21 48 -17 66 10 12 18 11 24
-2 43 -17 24 -46 29 -61 10z"/>
</g>
</svg>
